#!OML:ASF X:\für Bonn\!DataBase\2005_08_10_Bjorn_Final\c3d\bjorn.ASF
:FULLY-SPECIFIED
:DEGREES
130
root 0.723525 19.2194 4.34926 -208.528 -40.368 196.081
lowerback 28.9377 -1.67577 -2.1204
upperback 21.8886 -8.27515 0.371906
thorax 9.19703 -6.82155 2.67051
lowerneck -9.38874 -8.91213 -1.23262
upperneck -4.78592 -13.0355 19.5797
head 1.60579 -6.85745 5.41739
rclavicle 1.59028e-014 4.29375e-014
rhumerus -36.2064 2.61891 -85.1445
rradius 21.3036
rwrist 10.94
rhand -2.27427 11.91
rfingers 7.12502
rthumb 23.4103 -16.6861
lclavicle 1.59028e-014 4.29375e-014
lhumerus 60.0932 -18.6319 77.4892
lradius 103.079
lwrist 2.65967
lhand -54.8312 -20.8863
lfingers 7.12502
lthumb -27.2187 7.17
rfemur -77.686 -11.2256 22.4323
rtibia 123.834
rfoot 2.67368 16.7513
rtoes -21.7557
lfemur 5.86864 -13.7358 -11.3002
ltibia 24.6397
lfoot -0.60082 -20.8102
ltoes 19.7731
131
root 0.702212 19.2793 4.34748 -207.782 -40.172 195.684
lowerback 28.1091 -1.87679 -2.18708
upperback 21.6034 -8.35948 0.348049
thorax 9.21764 -6.79095 2.65416
lowerneck -9.20165 -8.87352 -1.38443
upperneck -4.4257 -12.9516 19.2858
head 1.65803 -6.7732 5.3592
rclavicle 3.18055e-015 -6.20208e-014
rhumerus -36.4059 3.10171 -85.4238
rradius 21.6862
rwrist 10.1744
rhand -2.13153 11.7086
rfingers 7.12502
rthumb 23.5472 -16.8699
lclavicle 3.18055e-015 -6.20208e-014
lhumerus 58.8697 -18.4058 77.3614
lradius 102.355
lwrist 2.4516
lhand -54.4283 -21.6746
lfingers 7.12502
lthumb -26.8333 6.44152
rfemur -76.2014 -11.4099 22.2294
rtibia 122.738
rfoot 2.31463 16.3778
rtoes -22.6289
lfemur 6.23168 -13.1427 -11.3448
ltibia 23.1042
lfoot 0.0630919 -20.7789
ltoes 19.529
132
root 0.680862 19.3303 4.34487 -206.921 -40.0034 195.261
lowerback 27.1543 -2.09443 -2.26409
upperback 21.2836 -8.44311 0.333942
thorax 9.26269 -6.75152 2.64279
lowerneck -9.06195 -8.85462 -1.63547
upperneck -3.95872 -12.9011 19.0445
head 1.76418 -6.69341 5.32392
rclavicle -3.33958e-014 -3.33958e-014
rhumerus -36.6812 3.73773 -85.7601
rradius 22.1802
rwrist 9.33147
rhand -1.99182 11.461
rfingers 7.12502
rthumb 23.6812 -17.1003
lclavicle -3.33958e-014 -3.33958e-014
lhumerus 57.5512 -18.216 77.2021
lradius 101.629
lwrist 2.21587
lhand -54.0011 -22.1591
lfingers 7.12502
lthumb -26.4244 6.01914
rfemur -74.8116 -11.6497 22.007
rtibia 121.574
rfoot 2.10519 15.9382
rtoes -23.2683
lfemur 6.4029 -12.5571 -11.3961
ltibia 21.7032
lfoot 0.731637 -20.767
ltoes 19.4159
133
root 0.658757 19.3798 4.34285 -206.012 -39.8206 194.844
lowerback 26.1286 -2.33846 -2.27423
upperback 20.6208 -8.51173 0.219396
thorax 9.61734 -6.70014 2.58091
lowerneck -8.82279 -8.83086 -1.83988
upperneck -3.57187 -12.8386 18.8112
head 1.82658 -6.62232 5.29218
rclavicle -4.29375e-014 -7.31528e-014
rhumerus -36.9542 4.17683 -86.0683
rradius 22.6079
rwrist 8.64045
rhand -1.85098 11.292
rfingers 7.12502
rthumb 23.8163 -17.2517
lclavicle -4.29375e-014 -7.31528e-014
lhumerus 56.1181 -18.0916 76.9918
lradius 100.884
lwrist 1.93371
lhand -53.4453 -22.4371
lfingers 7.12502
lthumb -25.8923 5.81994
rfemur -73.4222 -11.8497 21.761
rtibia 120.321
rfoot 2.03316 15.4544
rtoes -23.3657
lfemur 6.48516 -12.0676 -11.4806
ltibia 20.4023
lfoot 1.25346 -20.6174
ltoes 19.0858
134
root 0.63672 19.4279 4.3412 -205.132 -39.6367 194.464
lowerback 25.1464 -2.60092 -2.25194
upperback 20.2405 -8.6143 0.195746
thorax 9.5837 -6.64447 2.49751
lowerneck -8.5594 -8.80952 -2.04484
upperneck -3.17682 -12.7732 18.519
head 1.88234 -6.55042 5.24451
rclavicle -2.22639e-014 7.95139e-015
rhumerus -37.258 4.6282 -86.3379
rradius 23.0558
rwrist 8.05211
rhand -1.73448 11.1921
rfingers 7.12502
rthumb 23.928 -17.337
lclavicle -2.22639e-014 7.95139e-015
lhumerus 54.5559 -17.9717 76.7637
lradius 100.182
lwrist 1.67803
lhand -52.8062 -22.4961
lfingers 7.12502
lthumb -25.2801 5.84888
rfemur -71.9825 -12.0393 21.532
rtibia 118.986
rfoot 2.04481 14.9058
rtoes -23.0736
lfemur 6.553 -11.5756 -11.54
ltibia 19.1352
lfoot 1.70399 -20.5089
ltoes 18.5675
135
root 0.614126 19.4732 4.33867 -204.211 -39.4456 194.022
lowerback 24.1577 -2.84731 -2.25652
upperback 19.8408 -8.69809 0.155963
thorax 9.53765 -6.57952 2.4073
lowerneck -8.29601 -8.79422 -2.18524
upperneck -2.77739 -12.7181 18.1527
head 1.93041 -6.48547 5.16433
rclavicle -6.67916e-014 5.24792e-014
rhumerus -37.5199 4.91482 -86.5405
rradius 23.4514
rwrist 7.59441
rhand -1.68931 11.1089
rfingers 7.12502
rthumb 23.9714 -17.4145
lclavicle -6.67916e-014 5.24792e-014
lhumerus 52.9519 -17.9276 76.4735
lradius 99.4366
lwrist 1.42063
lhand -52.1563 -22.4298
lfingers 7.12502
lthumb -24.6573 6.00164
rfemur -70.526 -12.205 21.2376
rtibia 117.583
rfoot 2.15806 14.3576
rtoes -22.4214
lfemur 6.62589 -10.8859 -11.6041
ltibia 17.8244
lfoot 2.31919 -20.5332
ltoes 18.3488
